<mxfile host="app.diagrams.net" agent="Mozilla/5.0 (Windows NT 10.0; Win64; x64) AppleWebKit/537.36 (KHTML, like Gecko) Chrome/130.0.0.0 Safari/537.36" version="24.7.14">
  <diagram id="C5RBs43oDa-KdzZeNtuy" name="Page-1">
    <mxGraphModel dx="724" dy="366" grid="1" gridSize="10" guides="1" tooltips="1" connect="1" arrows="1" fold="1" page="1" pageScale="1" pageWidth="827" pageHeight="1169" math="0" shadow="0">
      <root>
        <mxCell id="WIyWlLk6GJQsqaUBKTNV-0" />
        <mxCell id="WIyWlLk6GJQsqaUBKTNV-1" parent="WIyWlLk6GJQsqaUBKTNV-0" />
        <mxCell id="DSLZUGOeERKcrzjCIyRU-1" style="edgeStyle=orthogonalEdgeStyle;rounded=0;orthogonalLoop=1;jettySize=auto;html=1;exitX=0.5;exitY=1;exitDx=0;exitDy=0;entryX=0.5;entryY=0;entryDx=0;entryDy=0;" edge="1" parent="WIyWlLk6GJQsqaUBKTNV-1" source="WIyWlLk6GJQsqaUBKTNV-3" target="DSLZUGOeERKcrzjCIyRU-0">
          <mxGeometry relative="1" as="geometry" />
        </mxCell>
        <mxCell id="WIyWlLk6GJQsqaUBKTNV-3" value="server" style="rounded=1;whiteSpace=wrap;html=1;fontSize=12;glass=0;strokeWidth=1;shadow=0;" parent="WIyWlLk6GJQsqaUBKTNV-1" vertex="1">
          <mxGeometry x="385" y="80" width="120" height="40" as="geometry" />
        </mxCell>
        <mxCell id="DSLZUGOeERKcrzjCIyRU-4" value="" style="edgeStyle=orthogonalEdgeStyle;rounded=0;orthogonalLoop=1;jettySize=auto;html=1;" edge="1" parent="WIyWlLk6GJQsqaUBKTNV-1" source="DSLZUGOeERKcrzjCIyRU-0" target="DSLZUGOeERKcrzjCIyRU-3">
          <mxGeometry relative="1" as="geometry" />
        </mxCell>
        <mxCell id="DSLZUGOeERKcrzjCIyRU-5" value="" style="edgeStyle=orthogonalEdgeStyle;rounded=0;orthogonalLoop=1;jettySize=auto;html=1;" edge="1" parent="WIyWlLk6GJQsqaUBKTNV-1" source="DSLZUGOeERKcrzjCIyRU-0" target="DSLZUGOeERKcrzjCIyRU-2">
          <mxGeometry relative="1" as="geometry" />
        </mxCell>
        <mxCell id="DSLZUGOeERKcrzjCIyRU-6" style="edgeStyle=orthogonalEdgeStyle;rounded=0;orthogonalLoop=1;jettySize=auto;html=1;exitX=0;exitY=0.5;exitDx=0;exitDy=0;" edge="1" parent="WIyWlLk6GJQsqaUBKTNV-1" source="DSLZUGOeERKcrzjCIyRU-0">
          <mxGeometry relative="1" as="geometry">
            <mxPoint x="400.1379310344828" y="200.20689655172418" as="targetPoint" />
          </mxGeometry>
        </mxCell>
        <mxCell id="DSLZUGOeERKcrzjCIyRU-0" value="Проверка&amp;nbsp;&lt;br&gt;есть ли в кеш" style="rhombus;whiteSpace=wrap;html=1;" vertex="1" parent="WIyWlLk6GJQsqaUBKTNV-1">
          <mxGeometry x="380" y="160" width="130" height="80" as="geometry" />
        </mxCell>
        <mxCell id="DSLZUGOeERKcrzjCIyRU-7" style="edgeStyle=orthogonalEdgeStyle;rounded=0;orthogonalLoop=1;jettySize=auto;html=1;exitX=0.5;exitY=0;exitDx=0;exitDy=0;entryX=1;entryY=0.5;entryDx=0;entryDy=0;" edge="1" parent="WIyWlLk6GJQsqaUBKTNV-1" source="DSLZUGOeERKcrzjCIyRU-2" target="WIyWlLk6GJQsqaUBKTNV-3">
          <mxGeometry relative="1" as="geometry" />
        </mxCell>
        <mxCell id="DSLZUGOeERKcrzjCIyRU-9" value="" style="edgeStyle=orthogonalEdgeStyle;rounded=0;orthogonalLoop=1;jettySize=auto;html=1;" edge="1" parent="WIyWlLk6GJQsqaUBKTNV-1" source="DSLZUGOeERKcrzjCIyRU-2" target="DSLZUGOeERKcrzjCIyRU-8">
          <mxGeometry relative="1" as="geometry" />
        </mxCell>
        <mxCell id="DSLZUGOeERKcrzjCIyRU-2" value="caсhe" style="rounded=0;whiteSpace=wrap;html=1;" vertex="1" parent="WIyWlLk6GJQsqaUBKTNV-1">
          <mxGeometry x="540" y="170" width="120" height="60" as="geometry" />
        </mxCell>
        <mxCell id="DSLZUGOeERKcrzjCIyRU-11" value="" style="edgeStyle=orthogonalEdgeStyle;rounded=0;orthogonalLoop=1;jettySize=auto;html=1;" edge="1" parent="WIyWlLk6GJQsqaUBKTNV-1" source="DSLZUGOeERKcrzjCIyRU-3" target="DSLZUGOeERKcrzjCIyRU-10">
          <mxGeometry relative="1" as="geometry" />
        </mxCell>
        <mxCell id="DSLZUGOeERKcrzjCIyRU-3" value="Url" style="rounded=0;whiteSpace=wrap;html=1;" vertex="1" parent="WIyWlLk6GJQsqaUBKTNV-1">
          <mxGeometry x="240" y="170" width="120" height="60" as="geometry" />
        </mxCell>
        <mxCell id="DSLZUGOeERKcrzjCIyRU-8" value="Clss Cache(&lt;div&gt;mass=[{&quot;15:20.11.15&quot;: Html+css(json) }]&lt;br&gt;max_time=10min+-&lt;br&gt;)&lt;/div&gt;" style="shape=process;whiteSpace=wrap;html=1;backgroundOutline=1;rounded=0;" vertex="1" parent="WIyWlLk6GJQsqaUBKTNV-1">
          <mxGeometry x="452.5" y="290" width="295" height="120" as="geometry" />
        </mxCell>
        <mxCell id="DSLZUGOeERKcrzjCIyRU-10" value="составление ответа по шаблону" style="rounded=0;whiteSpace=wrap;html=1;" vertex="1" parent="WIyWlLk6GJQsqaUBKTNV-1">
          <mxGeometry x="40" y="170" width="120" height="60" as="geometry" />
        </mxCell>
      </root>
    </mxGraphModel>
  </diagram>
</mxfile>
